<svg id="Capa_1" enable-background="new 0 0 512 512" height="512" viewBox="0 0 512 512" width="512" xmlns="http://www.w3.org/2000/svg"><g><path d="m210.925 0h90.1v60.569h-90.1z"/><path d="m406 31.417h-74.976v44.152c0 8.284-6.716 15-15 15h-120.1c-8.284 0-15-6.716-15-15v-44.152h-74.924c-24.813 0-45 20.187-45 45v44.583h390v-44.583c0-24.813-20.187-45-45-45z"/><path d="m61 467c0 24.813 20.187 45 45 45h300c24.813 0 45-20.187 45-45v-316h-390zm254.975-256h15v-15c0-8.284 6.716-15 15-15s15 6.716 15 15v15h15c8.284 0 15 6.716 15 15s-6.716 15-15 15h-15v15.209c0 8.284-6.716 15-15 15s-15-6.716-15-15v-15.209h-15c-8.284 0-15-6.716-15-15s6.715-15 15-15zm-180.026-30h120c8.284 0 15 6.716 15 15s-6.716 15-15 15h-120c-8.284 0-15-6.716-15-15s6.716-15 15-15zm135.051 75c0 8.284-6.716 15-15 15h-120c-8.284 0-15-6.716-15-15s6.716-15 15-15h120c8.284 0 15 6.716 15 15zm-135.051 45h239.976c8.284 0 15 6.716 15 15s-6.716 15-15 15h-239.976c-8.284 0-15-6.716-15-15s6.716-15 15-15zm0 60h240c8.284 0 15 6.716 15 15s-6.716 15-15 15h-240c-8.284 0-15-6.716-15-15s6.716-15 15-15zm0 60h240c8.284 0 15 6.716 15 15s-6.716 15-15 15h-240c-8.284 0-15-6.716-15-15s6.716-15 15-15z"/></g></svg>