<?xml version="1.0" encoding="iso-8859-1"?>
<!-- Generator: Adobe Illustrator 19.0.0, SVG Export Plug-In . SVG Version: 6.00 Build 0)  -->
<svg xmlns="http://www.w3.org/2000/svg" xmlns:xlink="http://www.w3.org/1999/xlink" version="1.1" id="Layer_1" x="0px" y="0px" viewBox="0 0 511.322 511.322" style="enable-background:new 0 0 511.322 511.322;" xml:space="preserve" width="512" height="512">
<g>
	<path d="M166.512,195.09c53.786,0,97.544-43.759,97.544-97.545S220.298,0,166.512,0S68.967,43.759,68.967,97.545   S112.726,195.09,166.512,195.09z"/>
	<path d="M184.705,362.811c0-57.7,27.705-109.113,70.642-141.937c-22.18-14.006-47.516-22.679-73.836-25.084v113.529h-30V195.776   c-84.64,7.608-151.2,78.929-151.2,165.516v79.88h200.808c-0.597-1.303-1.179-2.615-1.745-3.938   C189.641,414.495,184.705,389.455,184.705,362.811z"/>
	<path d="M446.826,347.811h64.184c-7.052-70.352-63.159-126.459-133.511-133.512v64.184h-30v-63.875   c-69.763,8.443-124.998,63.916-132.033,133.203h62.728v30h-62.862c2.03,24.365,9,45.509,19.518,63.361h0.666   c15.105,24.389,37.033,44.124,63.102,56.521c15.431,7.015,32.017,11.501,48.881,13.396v-63.969h30v64.202   c70.352-7.052,126.458-63.159,133.511-133.511h-64.184V347.811z M363.672,382.521l-56.134-40.306l17.498-24.369l35.169,25.253   l56.279-57.737l21.482,20.939L363.672,382.521z"/>
</g>















</svg>
