<svg height="512" viewBox="0 0 512 512" width="512" xmlns="http://www.w3.org/2000/svg"><g id="Solid"><path d="m472 56h-16v16a32 32 0 0 1 -64 0v-16h-48v16a32 32 0 0 1 -64 0v-16h-48v16a32 32 0 0 1 -64 0v-16h-48v16a32 32 0 0 1 -64 0v-16h-16a16 16 0 0 0 -16 16v64h464v-64a16 16 0 0 0 -16-16z"/><path d="m88 88a16 16 0 0 0 16-16v-32a16 16 0 0 0 -32 0v32a16 16 0 0 0 16 16z"/><path d="m312 88a16 16 0 0 0 16-16v-32a16 16 0 0 0 -32 0v32a16 16 0 0 0 16 16z"/><path d="m200 88a16 16 0 0 0 16-16v-32a16 16 0 0 0 -32 0v32a16 16 0 0 0 16 16z"/><path d="m424 88a16 16 0 0 0 16-16v-32a16 16 0 0 0 -32 0v32a16 16 0 0 0 16 16z"/><path d="m256 448a128 128 0 1 0 -128-128 128.146 128.146 0 0 0 128 128zm-80-152h56v-56h48v56h56v48h-56v56h-48v-56h-56z"/><path d="m24 472a16 16 0 0 0 16 16h432a16 16 0 0 0 16-16v-320h-464zm232-296c79.4 0 144 64.6 144 144s-64.6 144-144 144-144-64.6-144-144 64.6-144 144-144z"/></g></svg>