<?xml version="1.0" encoding="UTF-8"?>
<svg xmlns="http://www.w3.org/2000/svg" id="Solid" width="512" height="512" viewBox="0 0 512 512"><g><path d="M335.8,451.031l-6.974-2.324A48.251,48.251,0,0,1,297.75,416h-83.5a48.252,48.252,0,0,1-31.07,32.707l-6.975,2.324A11.986,11.986,0,0,0,168,462.415V464H344v-1.585A11.987,11.987,0,0,0,335.8,451.031Z"/><path d="M32,390a10,10,0,0,0,10,10H470a10,10,0,0,0,10-10V352H32Zm200-22h48v16H232Z"/><circle cx="96" cy="280" r="16"/><circle cx="96" cy="152" r="16"/><circle cx="416" cy="152" r="16"/><circle cx="416" cy="280" r="16"/><path d="M232,248v32h48V248a8,8,0,0,1,8-8h32V192H288a8,8,0,0,1-8-8V152H232v32a8,8,0,0,1-8,8H192v48h32A8,8,0,0,1,232,248Z"/><path d="M32,336H480V96H32ZM384,152a32.033,32.033,0,1,1,6.676,19.541L354.53,183.59l-5.06-15.18,34.887-11.629A32.076,32.076,0,0,1,384,152Zm-29.47,96.41,36.146,12.049a31.865,31.865,0,1,1-6.319,14.76L349.47,263.59ZM176,184a8,8,0,0,1,8-8h32V144a8,8,0,0,1,8-8h64a8,8,0,0,1,8,8v32h32a8,8,0,0,1,8,8v64a8,8,0,0,1-8,8H296v32a8,8,0,0,1-8,8H224a8,8,0,0,1-8-8V256H184a8,8,0,0,1-8-8ZM96,120a32.013,32.013,0,0,1,31.643,36.781L162.53,168.41l-5.06,15.18-36.146-12.049A31.995,31.995,0,1,1,96,120Zm0,128a31.964,31.964,0,0,1,25.324,12.459L157.47,248.41l5.06,15.18-34.887,11.629A32,32,0,1,1,96,248Z"/><path d="M470,48H42A10,10,0,0,0,32,58V80H480V58A10,10,0,0,0,470,48ZM64,72H48V56H64Zm32,0H80V56H96Zm32,0H112V56h16Zm304,0H416V56h16Zm32,0H448V56h16Z"/></g></svg>
