<svg id="Capa_1" enable-background="new 0 0 512 512" height="512" viewBox="0 0 512 512" width="512" xmlns="http://www.w3.org/2000/svg"><g><path d="m95.334 92.41c5.885-1.31 12.046-1.435 18.151-.255 23.751 4.589 59.522 9.766 95.041 8.368 67.33-2.651 116.717-26.896 119.353-94.736-2.748-3.517-7.017-5.787-11.826-5.787h-146.635c-40.85 0-74.084 33.234-74.084 74.084 0 1.025.104 2.026.3 2.993-.512 2.532-.215 3.543-.3 15.333z"/><path d="m107.788 121.636c-4.308-.833-8.882.261-12.454 3.472v58.43c0 42.287 34.402 76.689 76.689 76.689h56.806c42.287 0 76.689-34.403 76.689-76.689v-78.615c-53.167 33.94-135.549 28.728-197.73 16.713z"/><path d="m261.646 285.085c-25.234 8.177-40.804 4.05-89.623 5.169-37.16 0-69.939-19.096-89.055-47.986-37.318 13.503-62.7 49.086-62.7 89.388v165.33c0 8.291 6.722 15.013 15.013 15.013h252.708c-76.92-51.722-89.211-159.34-26.343-226.914zm-65.699 165.862c-8.291 0-15.013-6.722-15.013-15.013 0-8.292 6.722-15.013 15.013-15.013s15.013 6.722 15.013 15.013c.001 8.291-6.721 15.013-15.013 15.013zm0-60.053c-8.291 0-15.013-6.722-15.013-15.013 0-8.292 6.722-15.013 15.013-15.013s15.013 6.722 15.013 15.013c.001 8.291-6.721 15.013-15.013 15.013z"/><path d="m371.576 267.134c-66.253 0-120.155 53.902-120.155 120.156s53.902 120.155 120.155 120.155c66.254 0 120.156-53.901 120.156-120.155s-53.902-120.156-120.156-120.156zm15.013 120.155c0 8.291-6.722 15.013-15.013 15.013h-44.989c-8.291 0-15.013-6.722-15.013-15.013s6.722-15.013 15.013-15.013h29.975v-29.976c0-8.291 6.722-15.013 15.013-15.013s15.013 6.722 15.013 15.013v44.989z"/></g></svg>