<svg id="_x31__px" height="512" viewBox="0 0 24 24" width="512" xmlns="http://www.w3.org/2000/svg"><g><g><path d="m9 10c-2.757 0-5-2.243-5-5s2.243-5 5-5 5 2.243 5 5-2.243 5-5 5zm0-9c-2.206 0-4 1.794-4 4s1.794 4 4 4 4-1.794 4-4-1.794-4-4-4z"/></g><g><path d="m9.5 21h-9c-.276 0-.5-.224-.5-.5v-4c0-2.481 2.019-4.5 4.5-4.5h9c.276 0 .5.224.5.5s-.224.5-.5.5h-9c-1.93 0-3.5 1.57-3.5 3.5v3.5h8.5c.276 0 .5.224.5.5s-.224.5-.5.5z"/></g></g><g><path d="m18.5 24h-1c-.827 0-1.5-.673-1.5-1.5v-2.5h-2.5c-.827 0-1.5-.673-1.5-1.5v-1c0-.827.673-1.5 1.5-1.5h2.5v-2.5c0-.827.673-1.5 1.5-1.5h1c.827 0 1.5.673 1.5 1.5v2.5h2.5c.827 0 1.5.673 1.5 1.5v1c0 .827-.673 1.5-1.5 1.5h-2.5v2.5c0 .827-.673 1.5-1.5 1.5zm-5-7c-.276 0-.5.224-.5.5v1c0 .276.224.5.5.5h3c.276 0 .5.224.5.5v3c0 .276.224.5.5.5h1c.276 0 .5-.224.5-.5v-3c0-.276.224-.5.5-.5h3c.276 0 .5-.224.5-.5v-1c0-.276-.224-.5-.5-.5h-3c-.276 0-.5-.224-.5-.5v-3c0-.276-.224-.5-.5-.5h-1c-.276 0-.5.224-.5.5v3c0 .276-.224.5-.5.5z"/></g></svg>